<svg width="384" height="332" viewBox="0 0 384 332" fill="none" xmlns="http://www.w3.org/2000/svg">
<path d="M51.4597 36.0026C47.7421 36.2163 44.3988 38.8602 43.1211 44.2897C40.1393 58.7714 39 77.6541 39 90.2905C39 118.897 43.5936 144.88 52.1785 167.586V36.01C51.939 36.004 51.6964 35.9957 51.4597 36.0026ZM65.3203 44.8677V194.819C68.3232 199.814 71.5807 204.567 75.0523 209.095V51.9761C71.7256 49.971 68.4732 47.6246 65.3203 44.8677ZM80.7668 55.0597V216.1C86.0353 222.164 91.7574 227.74 97.9035 232.793V60.8265C92.1101 59.5729 86.3582 57.7419 80.7668 55.0597ZM196.81 57.9655C193.81 58.0085 190.767 58.1304 187.671 58.3283V143.029C190.692 143.464 193.745 143.824 196.81 144.164V57.9655ZM210.537 58.2624V145.557C216.871 146.17 223.276 146.83 229.734 147.744V60.4637C223.571 59.3894 217.166 58.6472 210.537 58.2624ZM181.949 58.7586C176.273 59.2406 170.518 59.8717 164.797 60.5227V137.982C170.408 139.8 176.134 141.108 181.949 142.125V58.7586ZM159.075 61.1527C155.814 61.5214 152.549 61.8943 149.366 62.2127V131.422C152.557 133.162 155.798 134.641 159.075 135.936V61.1527ZM235.456 61.5673V148.625C237.815 149.021 240.18 149.452 242.55 149.945V63.2799C240.229 62.6531 237.861 62.0848 235.456 61.5673ZM143.643 62.7534C138.559 63.178 133.641 63.4577 129.012 63.4577C128.18 63.4577 127.331 63.4434 126.492 63.4291V114.5C127.45 114.789 128.453 115.387 129.442 116.405C134.055 121.019 138.794 124.83 143.643 127.998V62.7534ZM248.272 64.9622V151.249C251.5 152.048 254.739 152.974 257.982 154.036V68.5499C254.845 67.2332 251.612 66.0324 248.272 64.9622ZM263.704 71.1516V156.067C269.412 158.251 275.131 160.936 280.855 164.273V81.8476C275.634 77.7537 269.902 74.1856 263.704 71.1516ZM286.57 86.7471V167.831C291.683 171.215 296.796 175.16 301.898 179.78V105.923C297.677 98.7083 292.538 92.316 286.57 86.7471ZM307.613 117.568V182.789C310.822 183.039 313.578 180.9 314.15 177.467C314.864 173.346 315.285 166.814 315.285 160.567C315.285 144.246 312.601 129.928 307.613 117.568ZM126.492 130.828V251.019C131.992 253.67 137.715 255.991 143.643 257.987V148.403C136.85 143.896 131.033 138.218 126.492 130.828ZM149.366 151.82V259.789C152.543 260.724 155.787 261.546 159.075 262.294V156.223C155.698 154.907 152.442 153.466 149.366 151.82ZM164.797 158.291V263.48C170.369 264.541 176.09 265.337 181.949 265.866V162.946C175.987 161.588 170.231 160.092 164.797 158.291ZM187.671 164.199V266.289C190.68 266.465 193.73 266.56 196.81 266.593V166.023C193.727 165.427 190.667 164.827 187.671 164.199ZM210.537 168.646V266.148C217.386 265.61 223.769 264.601 229.734 263.25V172.641C223.285 171.163 216.861 169.854 210.537 168.646ZM235.456 173.99V261.827C237.898 261.151 240.264 260.418 242.55 259.633V175.844C240.187 175.187 237.821 174.578 235.456 173.99ZM248.272 177.519V257.505C251.704 256.124 254.933 254.625 257.982 253.05V180.788C254.761 179.606 251.523 178.517 248.272 177.519ZM263.704 183.004V249.871C270.494 245.837 276.18 241.458 280.855 237.196V191.387C275.258 188.164 269.527 185.386 263.704 183.004ZM286.57 194.849V231.54C287.276 230.777 287.957 230.024 288.593 229.287C293.86 236.497 298.125 244.038 301.898 252.243V206.612C296.971 202.158 291.843 198.266 286.57 194.849ZM307.613 212.231V266.059C310.081 272.624 312.433 279.63 314.854 287.214C315.828 290.329 317.336 292.516 319.161 293.981V225.187C315.148 220.316 311.189 215.93 307.613 212.231ZM332.317 242.925V295.508C340.007 292.888 345.525 284.992 345.525 274.858C345.525 266.077 339.865 254.392 332.317 242.925Z" fill="white"/>
<path d="M16.5985 5.03864e-09C12.1964 0.000280724 7.97463 1.74915 4.86186 4.86205C1.74909 7.97495 0.000269307 12.1969 1.12809e-08 16.5992V66.4002C-0.000114667 68.6014 0.874111 70.7125 2.43033 72.2691C3.98655 73.8257 6.09733 74.7003 8.2984 74.7007C9.38841 74.7008 10.4678 74.4862 11.4748 74.0691C12.4819 73.6519 13.3968 73.0405 14.1676 72.2697C14.9383 71.4989 15.5497 70.5839 15.9668 69.5768C16.3839 68.5697 16.5986 67.4903 16.5985 66.4002V33.2001C16.5985 31.02 17.0278 28.8613 17.862 26.8471C18.6962 24.833 19.919 23.0028 21.4605 21.4612C23.002 19.9197 24.832 18.697 26.8461 17.8627C28.8602 17.0285 31.0189 16.5991 33.199 16.5992H66.3978C67.4878 16.5992 68.5672 16.3845 69.5742 15.9674C70.5813 15.5503 71.4962 14.9389 72.267 14.1681C73.0377 13.3973 73.6491 12.4822 74.0662 11.4752C74.4833 10.4681 74.698 9.38876 74.698 8.29872C74.6976 6.09758 73.823 3.98671 72.2664 2.43042C70.7099 0.874136 68.5989 -7.66352e-05 66.3978 5.03864e-09H16.5985Z" fill="white"/>
<path d="M383.947 16.5992C383.947 12.1969 382.198 7.975 379.085 4.86211C375.973 1.74922 371.751 0.000310948 367.349 6.10412e-05H317.55C315.349 -2.31711e-05 313.238 0.874209 311.681 2.43048C310.125 3.98676 309.25 6.09753 309.25 8.29867C309.249 9.38871 309.464 10.4681 309.881 11.4752C310.298 12.4823 310.91 13.3974 311.68 14.1682C312.451 14.9389 313.366 15.5504 314.373 15.9675C315.38 16.3846 316.46 16.5993 317.55 16.5992H350.748C352.928 16.5991 355.087 17.0284 357.101 17.8627C359.115 18.6969 360.945 19.9197 362.487 21.4613C364.028 23.0029 365.251 24.833 366.085 26.8472C366.92 28.8614 367.349 31.0201 367.349 33.2002V66.4003C367.349 67.4903 367.563 68.5697 367.981 69.5767C368.398 70.5838 369.009 71.4989 369.78 72.2697C370.551 73.0405 371.466 73.6518 372.473 74.0689C373.48 74.486 374.559 74.7007 375.649 74.7007C377.85 74.7003 379.961 73.8257 381.517 72.2691C383.073 70.7125 383.948 68.6015 383.947 66.4003V16.5992Z" fill="white"/>
<path d="M367.349 331.828C371.751 331.828 375.973 330.079 379.086 326.966C382.198 323.853 383.947 319.631 383.947 315.229V265.428C383.948 263.226 383.073 261.115 381.517 259.559C379.961 258.002 377.85 257.128 375.649 257.127C374.559 257.127 373.48 257.342 372.473 257.759C371.466 258.176 370.551 258.787 369.78 259.558C369.009 260.329 368.398 261.244 367.981 262.251C367.564 263.258 367.349 264.338 367.349 265.428V298.628C367.349 300.808 366.92 302.967 366.085 304.981C365.251 306.995 364.028 308.825 362.487 310.367C360.945 311.908 359.115 313.131 357.101 313.965C355.087 314.799 352.929 315.229 350.749 315.229H317.55C316.46 315.229 315.38 315.443 314.373 315.861C313.366 316.278 312.451 316.889 311.68 317.66C310.91 318.431 310.298 319.346 309.881 320.353C309.464 321.36 309.249 322.439 309.25 323.529C309.25 325.73 310.124 327.841 311.681 329.397C313.237 330.954 315.348 331.828 317.55 331.828H367.349Z" fill="white"/>
<path d="M1.82835e-09 315.229C0.000287938 319.631 1.74918 323.853 4.86197 326.966C7.97476 330.079 12.1965 331.828 16.5987 331.828H66.3977C68.5988 331.828 70.7098 330.954 72.2663 329.397C73.8229 327.841 74.6976 325.73 74.698 323.529C74.698 322.439 74.4833 321.36 74.0662 320.353C73.6491 319.346 73.0377 318.431 72.267 317.66C71.4962 316.889 70.5812 316.278 69.5741 315.86C68.5671 315.443 67.4877 315.229 66.3977 315.229H33.199C31.0189 315.229 28.8602 314.8 26.8461 313.965C24.832 313.131 23.002 311.908 21.4605 310.367C19.919 308.825 18.6962 306.995 17.862 304.981C17.0278 302.967 16.5986 300.808 16.5987 298.628V265.428C16.5987 264.337 16.384 263.258 15.9669 262.251C15.5498 261.244 14.9384 260.329 14.1677 259.558C13.3969 258.787 12.4819 258.176 11.4748 257.759C10.4678 257.342 9.3885 257.127 8.29851 257.127C6.09747 257.128 3.98667 258.002 2.43044 259.559C0.874209 261.115 -4.6166e-05 263.226 1.82835e-09 265.428V315.229Z" fill="white"/>
</svg>
